<mxfile host="app.diagrams.net" agent="Mozilla/5.0 (Macintosh; Intel Mac OS X 10.15; rv:128.0) Gecko/20100101 Firefox/128.0" version="26.1.1">
  <diagram id="lB3PFNVN5weEqUUhLix3" name="Page-4">
    <mxGraphModel grid="1" page="1" gridSize="10" guides="1" tooltips="1" connect="1" arrows="1" fold="1" pageScale="1" pageWidth="850" pageHeight="1100" math="0" shadow="0">
      <root>
        <mxCell id="0" />
        <mxCell id="1" parent="0" />
        <mxCell id="W581YQ6Cy-IJEoAmD4LZ-1" value="" style="ellipse;whiteSpace=wrap;html=1;aspect=fixed;fillColor=#000000;strokeColor=#000000;" vertex="1" parent="1">
          <mxGeometry x="50" y="50" width="20" height="20" as="geometry" />
        </mxCell>
        <mxCell id="W581YQ6Cy-IJEoAmD4LZ-2" value="TA reviews assigned proctoring duty" style="rounded=1;whiteSpace=wrap;html=1;" vertex="1" parent="1">
          <mxGeometry x="120" y="40" width="250" height="40" as="geometry" />
        </mxCell>
        <mxCell id="W581YQ6Cy-IJEoAmD4LZ-3" value="TA decides to request swap?" style="rhombus;whiteSpace=wrap;html=1;" vertex="1" parent="1">
          <mxGeometry x="480" y="40" width="160" height="60" as="geometry" />
        </mxCell>
        <mxCell id="W581YQ6Cy-IJEoAmD4LZ-4" value="No swap needed" style="rounded=1;whiteSpace=wrap;html=1;" vertex="1" parent="1">
          <mxGeometry x="840" y="320" width="120" height="40" as="geometry" />
        </mxCell>
        <mxCell id="W581YQ6Cy-IJEoAmD4LZ-5" value="TA fills swap request form" style="rounded=1;whiteSpace=wrap;html=1;" vertex="1" parent="1">
          <mxGeometry x="400" y="120" width="220" height="40" as="geometry" />
        </mxCell>
        <mxCell id="W581YQ6Cy-IJEoAmD4LZ-6" value="System displays candidate TAs" style="rounded=1;whiteSpace=wrap;html=1;" vertex="1" parent="1">
          <mxGeometry x="400" y="190" width="260" height="40" as="geometry" />
        </mxCell>
        <mxCell id="W581YQ6Cy-IJEoAmD4LZ-7" value="TA selects candidate" style="rounded=1;whiteSpace=wrap;html=1;" vertex="1" parent="1">
          <mxGeometry x="400" y="260" width="200" height="40" as="geometry" />
        </mxCell>
        <mxCell id="W581YQ6Cy-IJEoAmD4LZ-8" value="System checks candidate eligibility &amp; conflicts" style="rounded=1;whiteSpace=wrap;html=1;" vertex="1" parent="1">
          <mxGeometry x="400" y="330" width="280" height="60" as="geometry" />
        </mxCell>
        <mxCell id="W581YQ6Cy-IJEoAmD4LZ-9" value="Candidate eligible?" style="rhombus;whiteSpace=wrap;html=1;" vertex="1" parent="1">
          <mxGeometry x="400" y="420" width="140" height="60" as="geometry" />
        </mxCell>
        <mxCell id="W581YQ6Cy-IJEoAmD4LZ-10" value="Notify TA: candidate not eligible" style="rounded=1;whiteSpace=wrap;html=1;" vertex="1" parent="1">
          <mxGeometry x="20" y="240" width="200" height="40" as="geometry" />
        </mxCell>
        <mxCell id="W581YQ6Cy-IJEoAmD4LZ-11" value="System sends swap request to candidate" style="rounded=1;whiteSpace=wrap;html=1;" vertex="1" parent="1">
          <mxGeometry x="400" y="500" width="250" height="40" as="geometry" />
        </mxCell>
        <mxCell id="W581YQ6Cy-IJEoAmD4LZ-12" value="Candidate TA reviews swap request" style="rounded=1;whiteSpace=wrap;html=1;" vertex="1" parent="1">
          <mxGeometry x="400" y="560" width="260" height="40" as="geometry" />
        </mxCell>
        <mxCell id="W581YQ6Cy-IJEoAmD4LZ-13" value="Candidate accepts swap?" style="rhombus;whiteSpace=wrap;html=1;" vertex="1" parent="1">
          <mxGeometry x="400" y="630" width="160" height="60" as="geometry" />
        </mxCell>
        <mxCell id="W581YQ6Cy-IJEoAmD4LZ-14" value="Notify TA: swap request rejected" style="rounded=1;whiteSpace=wrap;html=1;" vertex="1" parent="1">
          <mxGeometry x="70" y="740" width="220" height="40" as="geometry" />
        </mxCell>
        <mxCell id="W581YQ6Cy-IJEoAmD4LZ-15" value="Route request to staff for approval" style="rounded=1;whiteSpace=wrap;html=1;" vertex="1" parent="1">
          <mxGeometry x="400" y="720" width="280" height="40" as="geometry" />
        </mxCell>
        <mxCell id="W581YQ6Cy-IJEoAmD4LZ-16" value="Staff reviews request" style="rounded=1;whiteSpace=wrap;html=1;" vertex="1" parent="1">
          <mxGeometry x="400" y="780" width="220" height="40" as="geometry" />
        </mxCell>
        <mxCell id="W581YQ6Cy-IJEoAmD4LZ-17" value="Staff approves swap?" style="rhombus;whiteSpace=wrap;html=1;" vertex="1" parent="1">
          <mxGeometry x="400" y="860" width="160" height="60" as="geometry" />
        </mxCell>
        <mxCell id="W581YQ6Cy-IJEoAmD4LZ-18" value="Notify TA: staff rejected swap" style="rounded=1;whiteSpace=wrap;html=1;" vertex="1" parent="1">
          <mxGeometry x="-40" y="1080" width="220" height="40" as="geometry" />
        </mxCell>
        <mxCell id="W581YQ6Cy-IJEoAmD4LZ-19" value="System updates assignment &amp; workloads" style="rounded=1;whiteSpace=wrap;html=1;" vertex="1" parent="1">
          <mxGeometry x="400" y="940" width="260" height="40" as="geometry" />
        </mxCell>
        <mxCell id="W581YQ6Cy-IJEoAmD4LZ-20" value="System notifies TAs &amp; logs swap" style="rounded=1;whiteSpace=wrap;html=1;" vertex="1" parent="1">
          <mxGeometry x="400" y="1000" width="260" height="40" as="geometry" />
        </mxCell>
        <mxCell id="W581YQ6Cy-IJEoAmD4LZ-21" value="" style="ellipse;whiteSpace=wrap;html=1;aspect=fixed;strokeWidth=3;fillColor=#FFFFFF;strokeColor=#000000;" vertex="1" parent="1">
          <mxGeometry x="400" y="1080" width="30" height="30" as="geometry" />
        </mxCell>
        <mxCell id="W581YQ6Cy-IJEoAmD4LZ-22" style="edgeStyle=orthogonalEdgeStyle;rounded=0;endArrow=block;strokeColor=#000000;" edge="1" parent="1" source="W581YQ6Cy-IJEoAmD4LZ-1" target="W581YQ6Cy-IJEoAmD4LZ-2">
          <mxGeometry relative="1" as="geometry" />
        </mxCell>
        <mxCell id="W581YQ6Cy-IJEoAmD4LZ-23" style="edgeStyle=orthogonalEdgeStyle;rounded=0;endArrow=block;strokeColor=#000000;" edge="1" parent="1" source="W581YQ6Cy-IJEoAmD4LZ-2" target="W581YQ6Cy-IJEoAmD4LZ-3">
          <mxGeometry relative="1" as="geometry" />
        </mxCell>
        <mxCell id="W581YQ6Cy-IJEoAmD4LZ-24" value="[no]" style="edgeStyle=orthogonalEdgeStyle;rounded=0;endArrow=block;strokeColor=#000000;" edge="1" parent="1" source="W581YQ6Cy-IJEoAmD4LZ-3" target="W581YQ6Cy-IJEoAmD4LZ-4">
          <mxGeometry relative="1" as="geometry" />
        </mxCell>
        <mxCell id="W581YQ6Cy-IJEoAmD4LZ-25" style="edgeStyle=orthogonalEdgeStyle;rounded=0;endArrow=block;strokeColor=#000000;" edge="1" parent="1" source="W581YQ6Cy-IJEoAmD4LZ-4" target="W581YQ6Cy-IJEoAmD4LZ-21">
          <mxGeometry relative="1" as="geometry">
            <Array as="points">
              <mxPoint x="930" y="1095" />
            </Array>
          </mxGeometry>
        </mxCell>
        <mxCell id="W581YQ6Cy-IJEoAmD4LZ-26" value="[yes]" style="edgeStyle=orthogonalEdgeStyle;rounded=0;endArrow=block;strokeColor=#000000;" edge="1" parent="1" source="W581YQ6Cy-IJEoAmD4LZ-3" target="W581YQ6Cy-IJEoAmD4LZ-5">
          <mxGeometry relative="1" as="geometry" />
        </mxCell>
        <mxCell id="W581YQ6Cy-IJEoAmD4LZ-27" style="edgeStyle=orthogonalEdgeStyle;rounded=0;endArrow=block;strokeColor=#000000;" edge="1" parent="1" source="W581YQ6Cy-IJEoAmD4LZ-5" target="W581YQ6Cy-IJEoAmD4LZ-6">
          <mxGeometry relative="1" as="geometry" />
        </mxCell>
        <mxCell id="W581YQ6Cy-IJEoAmD4LZ-28" style="edgeStyle=orthogonalEdgeStyle;rounded=0;endArrow=block;strokeColor=#000000;" edge="1" parent="1" source="W581YQ6Cy-IJEoAmD4LZ-6" target="W581YQ6Cy-IJEoAmD4LZ-7">
          <mxGeometry relative="1" as="geometry" />
        </mxCell>
        <mxCell id="W581YQ6Cy-IJEoAmD4LZ-29" style="edgeStyle=orthogonalEdgeStyle;rounded=0;endArrow=block;strokeColor=#000000;" edge="1" parent="1" source="W581YQ6Cy-IJEoAmD4LZ-7" target="W581YQ6Cy-IJEoAmD4LZ-8">
          <mxGeometry relative="1" as="geometry" />
        </mxCell>
        <mxCell id="W581YQ6Cy-IJEoAmD4LZ-30" style="edgeStyle=orthogonalEdgeStyle;rounded=0;endArrow=block;strokeColor=#000000;" edge="1" parent="1" source="W581YQ6Cy-IJEoAmD4LZ-8" target="W581YQ6Cy-IJEoAmD4LZ-9">
          <mxGeometry relative="1" as="geometry" />
        </mxCell>
        <mxCell id="W581YQ6Cy-IJEoAmD4LZ-31" value="[no]" style="edgeStyle=orthogonalEdgeStyle;rounded=0;endArrow=block;strokeColor=#000000;" edge="1" parent="1" source="W581YQ6Cy-IJEoAmD4LZ-9" target="W581YQ6Cy-IJEoAmD4LZ-10">
          <mxGeometry relative="1" as="geometry" />
        </mxCell>
        <mxCell id="W581YQ6Cy-IJEoAmD4LZ-32" style="edgeStyle=orthogonalEdgeStyle;rounded=0;endArrow=block;strokeColor=#000000;" edge="1" parent="1" source="W581YQ6Cy-IJEoAmD4LZ-10" target="W581YQ6Cy-IJEoAmD4LZ-7">
          <mxGeometry relative="1" as="geometry" />
        </mxCell>
        <mxCell id="W581YQ6Cy-IJEoAmD4LZ-33" value="[yes]" style="edgeStyle=orthogonalEdgeStyle;rounded=0;endArrow=block;strokeColor=#000000;" edge="1" parent="1" source="W581YQ6Cy-IJEoAmD4LZ-9" target="W581YQ6Cy-IJEoAmD4LZ-11">
          <mxGeometry relative="1" as="geometry" />
        </mxCell>
        <mxCell id="W581YQ6Cy-IJEoAmD4LZ-34" style="edgeStyle=orthogonalEdgeStyle;rounded=0;endArrow=block;strokeColor=#000000;" edge="1" parent="1" source="W581YQ6Cy-IJEoAmD4LZ-11" target="W581YQ6Cy-IJEoAmD4LZ-12">
          <mxGeometry relative="1" as="geometry" />
        </mxCell>
        <mxCell id="W581YQ6Cy-IJEoAmD4LZ-35" style="edgeStyle=orthogonalEdgeStyle;rounded=0;endArrow=block;strokeColor=#000000;" edge="1" parent="1" source="W581YQ6Cy-IJEoAmD4LZ-12" target="W581YQ6Cy-IJEoAmD4LZ-13">
          <mxGeometry relative="1" as="geometry" />
        </mxCell>
        <mxCell id="W581YQ6Cy-IJEoAmD4LZ-36" value="[no]" style="edgeStyle=orthogonalEdgeStyle;rounded=0;endArrow=block;strokeColor=#000000;" edge="1" parent="1" source="W581YQ6Cy-IJEoAmD4LZ-13" target="W581YQ6Cy-IJEoAmD4LZ-14">
          <mxGeometry relative="1" as="geometry" />
        </mxCell>
        <mxCell id="W581YQ6Cy-IJEoAmD4LZ-37" style="edgeStyle=orthogonalEdgeStyle;rounded=0;endArrow=block;strokeColor=#000000;" edge="1" parent="1" source="W581YQ6Cy-IJEoAmD4LZ-14" target="W581YQ6Cy-IJEoAmD4LZ-21">
          <mxGeometry relative="1" as="geometry">
            <Array as="points">
              <mxPoint x="330" y="760" />
              <mxPoint x="330" y="1095" />
            </Array>
          </mxGeometry>
        </mxCell>
        <mxCell id="W581YQ6Cy-IJEoAmD4LZ-38" value="[yes]" style="edgeStyle=orthogonalEdgeStyle;rounded=0;endArrow=block;strokeColor=#000000;" edge="1" parent="1" source="W581YQ6Cy-IJEoAmD4LZ-13" target="W581YQ6Cy-IJEoAmD4LZ-15">
          <mxGeometry relative="1" as="geometry" />
        </mxCell>
        <mxCell id="W581YQ6Cy-IJEoAmD4LZ-39" style="edgeStyle=orthogonalEdgeStyle;rounded=0;endArrow=block;strokeColor=#000000;" edge="1" parent="1" source="W581YQ6Cy-IJEoAmD4LZ-15" target="W581YQ6Cy-IJEoAmD4LZ-16">
          <mxGeometry relative="1" as="geometry" />
        </mxCell>
        <mxCell id="W581YQ6Cy-IJEoAmD4LZ-40" style="edgeStyle=orthogonalEdgeStyle;rounded=0;endArrow=block;strokeColor=#000000;" edge="1" parent="1" source="W581YQ6Cy-IJEoAmD4LZ-16" target="W581YQ6Cy-IJEoAmD4LZ-17">
          <mxGeometry relative="1" as="geometry" />
        </mxCell>
        <mxCell id="W581YQ6Cy-IJEoAmD4LZ-41" value="[no]" style="edgeStyle=orthogonalEdgeStyle;rounded=0;endArrow=block;strokeColor=#000000;" edge="1" parent="1" source="W581YQ6Cy-IJEoAmD4LZ-17" target="W581YQ6Cy-IJEoAmD4LZ-18">
          <mxGeometry relative="1" as="geometry" />
        </mxCell>
        <mxCell id="W581YQ6Cy-IJEoAmD4LZ-42" style="edgeStyle=orthogonalEdgeStyle;rounded=0;endArrow=block;strokeColor=#000000;" edge="1" parent="1" source="W581YQ6Cy-IJEoAmD4LZ-18" target="W581YQ6Cy-IJEoAmD4LZ-21">
          <mxGeometry relative="1" as="geometry" />
        </mxCell>
        <mxCell id="W581YQ6Cy-IJEoAmD4LZ-43" value="[yes]" style="edgeStyle=orthogonalEdgeStyle;rounded=0;endArrow=block;strokeColor=#000000;" edge="1" parent="1" source="W581YQ6Cy-IJEoAmD4LZ-17" target="W581YQ6Cy-IJEoAmD4LZ-19">
          <mxGeometry relative="1" as="geometry" />
        </mxCell>
        <mxCell id="W581YQ6Cy-IJEoAmD4LZ-44" style="edgeStyle=orthogonalEdgeStyle;rounded=0;endArrow=block;strokeColor=#000000;" edge="1" parent="1" source="W581YQ6Cy-IJEoAmD4LZ-19" target="W581YQ6Cy-IJEoAmD4LZ-20">
          <mxGeometry relative="1" as="geometry" />
        </mxCell>
        <mxCell id="W581YQ6Cy-IJEoAmD4LZ-45" style="edgeStyle=orthogonalEdgeStyle;rounded=0;endArrow=block;strokeColor=#000000;" edge="1" parent="1" source="W581YQ6Cy-IJEoAmD4LZ-20" target="W581YQ6Cy-IJEoAmD4LZ-21">
          <mxGeometry relative="1" as="geometry" />
        </mxCell>
      </root>
    </mxGraphModel>
  </diagram>
</mxfile>
